<!--?xml version="1.0" standalone="no"?-->
              <svg id="sw-js-blob-svg" viewBox="0 0 100 100" xmlns="http://www.w3.org/2000/svg" version="1.1">
                    <defs> 
                        <linearGradient id="sw-gradient" x1="0" x2="1" y1="1" y2="0">
                            <stop id="stop1" stop-color="rgba(126, 34, 206, 1)" offset="0%"></stop>
                            <stop id="stop2" stop-color="rgba(59, 7, 100, 1)" offset="100%"></stop>
                        </linearGradient>
                    </defs>
                <path fill="url(#sw-gradient)" d="M27.8,-33C35.9,-26.4,42.1,-17.5,43.6,-7.9C45,1.8,41.8,12,35.8,19C29.8,26,21,29.8,12.2,32.7C3.3,35.7,-5.6,37.8,-14.2,35.9C-22.7,34.1,-30.9,28.3,-36.1,20.4C-41.2,12.4,-43.2,2.2,-40.8,-6.4C-38.4,-15.1,-31.5,-22.2,-24,-28.9C-16.4,-35.7,-8.2,-42,0.8,-43C9.9,-44,19.8,-39.7,27.8,-33Z" width="100%" height="100%" transform="translate(50 50)" stroke-width="0" style="transition: all 0.3s ease 0s;" stroke="url(#sw-gradient)"></path>
              </svg>